<?xml version="1.0" encoding="UTF-8" standalone="no"?>
<!-- Created with Inkscape (http://www.inkscape.org/) -->

<svg
   width="21cm"
   height="21cm"
   viewBox="0 0 210 209.99999"
   version="1.1"
   id="svg5"
   xmlns="http://www.w3.org/2000/svg"
   xmlns:svg="http://www.w3.org/2000/svg">
  <defs
     id="defs2" />
  <g
     id="layer1">
    <path
       style="fill:#000000;stroke-width:1.00247"
       d="m 46.532232,190.4845 c -0.9761,-0.60328 -1.200021,-7.54106 -0.994002,-30.78405 l 0.267113,-30.00539 h 17.543125 17.543126 l 0.24438,25.0616 c 0.133556,13.7839 -0.147765,25.67645 -0.630274,26.42789 -0.481372,0.75132 -6.907154,3.04827 -14.279455,5.10405 -18.127392,5.05487 -18.258192,5.08274 -19.693075,4.1959 z m 82.643288,-22.86286 c -0.36742,-0.36742 -0.66835,-4.18612 -0.66835,-8.48568 0,-6.70281 0.27564,-7.96532 1.93913,-8.85512 1.07414,-0.57486 8.25722,-1.03777 16.10535,-1.03777 7.84812,0 15.03109,0.46291 16.10531,1.03777 2.26109,1.20997 2.70211,7.10566 0.65869,8.80163 -1.29862,1.07784 -29.66927,9.20746 -32.13169,9.20746 -0.73712,0 -1.64076,-0.30064 -2.00818,-0.66835 z m 0,-25.06163 c -0.36742,-0.36742 -0.67517,-5.21698 -0.6837,-10.77649 -0.008,-5.55948 -0.44272,-10.78485 -0.9653,-11.61187 -0.80986,-1.28215 -6.90269,-1.57768 -41.336306,-2.00478 L 45.80378,117.66561 45.302516,105.13478 C 45.026878,98.242867 44.436385,92.040097 43.990252,91.350916 43.388677,90.421418 38.297268,90.097757 24.273561,90.097757 13.875464,90.097757 4.6543375,89.82496 3.7822163,89.489363 1.8888325,88.762758 1.6902065,85.713318 3.4497419,84.384969 5.2681035,83.012177 75.393974,64.033772 78.648267,64.033772 h 2.743028 v 10.871712 c 0,9.23087 0.275638,11.120385 1.820349,12.519008 1.61291,1.459746 6.324278,1.67713 41.351666,1.909576 l 39.53146,0.26143 0.50126,12.735562 c 0.27565,7.00456 0.96502,13.19745 1.53194,13.76197 0.61464,0.61208 9.11196,1.13636 21.05177,1.29891 19.87946,0.26995 20.02337,0.28842 20.34015,2.51853 0.22449,1.57484 -0.3751,2.539 -2.00505,3.22753 -3.20357,1.35318 -72.42594,20.08945 -74.22196,20.08945 -0.79708,0 -1.74987,-0.30064 -2.11729,-0.66835 z m 1.08608,-64.572151 c -1.59615,-0.929781 -1.75443,-3.263017 -1.75443,-25.878228 0,-22.425505 0.1705,-25.005082 1.75443,-26.376278 1.98004,-1.715495 27.44703,-8.815537 31.62019,-8.815537 h 2.71433 v 30.038658 c 0,28.672376 -0.0881,30.08586 -1.93912,31.076397 -2.50576,1.340965 -30.08144,1.302603 -32.39538,-0.04547 z M 46.505691,56.815913 c -1.579946,-1.579947 -1.546416,-7.305864 0.05114,-8.551237 2.002214,-1.56176 32.585956,-9.562232 33.766114,-8.83287 1.500097,0.92694 1.385296,15.865284 -0.133556,17.384107 -1.683951,1.683951 -31.998761,1.683951 -33.682798,0 z"
       id="path21" />
  </g>
</svg>
